<?xml version="1.0" encoding="utf-8"?>
<!-- Generator: Adobe Illustrator 19.2.1, SVG Export Plug-In . SVG Version: 6.00 Build 0)  -->
<svg version="1.1" id="Capa_1" xmlns="http://www.w3.org/2000/svg" xmlns:xlink="http://www.w3.org/1999/xlink" x="0px" y="0px"
	 viewBox="0 0 94.7 94.7" style="enable-background:new 0 0 94.7 94.7;" xml:space="preserve">
   <style type="text/css">
   	.st0{fill:none;stroke:#008ED6;stroke-width:1.5;stroke-miterlimit:10;}
   	.st1{fill:none;stroke:#008ED6;stroke-width:1.5;stroke-linejoin:round;stroke-miterlimit:10;}
   	.st2{fill:none;stroke:#008ED6;stroke-width:1.5;stroke-miterlimit:10;}
    .st3{fill:none;stroke:#008ED6;}
   	.st4{fill:none;stroke:#008ED6;}
   </style>
<g>
	<circle class="st2" cx="47.3" cy="45.7" r="40"/>
	<g>
		<path class="st2" d="M48.7,48.9c0.2,0.9,0.3,2,0.9,3.2c0.7,1.6,2,2.6,3.4,2.6l0,0c1,0,2.1-0.5,3.1-1.5c1.4-1.4,1.9-3.3,1.2-5
			c-0.9-2.3-3.6-3.8-6.9-3.8c-0.7,0-1.5,0.1-2.2,0.2c-0.3,0.1-0.5,0.3-0.6,0.5c-0.1,0.3,0,0.6,0.2,0.8
			C48.4,46.8,48.6,47.8,48.7,48.9z"/>
		<path class="st2" d="M71.7,65.2c-1.6-2.4-4-5.2-6.8-8c-1.5-1.5-3.1-3-4.6-4.3c-0.2-0.1-0.4-0.2-0.6-0.1c-0.2,0.1-0.4,0.2-0.5,0.4
			c-0.2,0.6-0.6,1.2-1.1,1.7c-0.4,0.4-0.9,0.8-1.3,1c-0.2,0.1-0.3,0.3-0.4,0.5c0,0.2,0,0.4,0.2,0.6c1.2,1.5,2.6,3,4.1,4.5
			c5.1,5.1,10,8.6,12,8.6c0.3,0,0.5-0.1,0.7-0.2C74,69.1,72.8,66.9,71.7,65.2z"/>
		<g>
			<path class="st2" d="M58.2,57.6c0.5-0.2,0.9-0.6,1.3-1c0.5-0.5,0.9-1.1,1.1-1.7c0.1-0.2,0.3-0.4,0.5-0.4c0.2-0.1,0.5,0,0.6,0.1
				c1.4,1.2,3,2.6,4.5,4.1h3.5c1.7,0,3-1.3,3-3V28.2c0-1.6-1.3-3-3-3h-44c-1.7,0-3,1.4-3,3v27.4c0,1.7,1.3,3,3,3H58
				c-0.1-0.2-0.2-0.4-0.1-0.5C57.9,57.8,58.1,57.7,58.2,57.6z"/>
		</g>
		<g>
			<path class="st4" d="M26.9,34.7c0,0,0.1-0.2,0.4-0.4c0.3-0.2,0.7-0.6,1.2-1c0.5-0.4,1.2-0.9,2-1.4c0.8-0.5,1.7-1.1,2.8-1.6
				c1.1-0.4,2.5-0.8,3.9-0.1c0.3,0.2,0.7,0.4,0.9,0.8c0.2,0.4,0.3,0.8,0.3,1.3c-0.1,0.4-0.2,0.8-0.4,1.1c-0.2,0.3-0.4,0.6-0.6,0.9
				c-0.9,1.2-1.8,2.4-2.6,3.7c-0.4,0.6-0.9,1.3-1.2,1.9c-0.3,0.6-0.7,1.4-0.6,1.9c0,0.1,0,0.2,0.1,0.2l0,0c0.1,0-0.1,0,0,0l0,0l0,0
				l0.1,0.1c0.1,0,0.1,0,0.1,0c0.3,0.1,0.6,0,1,0c0.7-0.1,1.5-0.3,2.2-0.5c1.4-0.5,2.9-1,4.2-1.5c1.4-0.5,2.7-1,4-1.5
				c1.3-0.4,2.5-0.9,3.8-0.9c0.2,0,0.3,0,0.5,0c0.1,0,0.1,0,0.2,0.1c0.1,0,0.2,0.1,0.3,0.1c0.2,0.1,0.3,0.3,0.4,0.4
				c0.1,0.2,0.1,0.4,0,0.5c-0.1,0.6-0.5,1-0.8,1.4c-0.6,0.7-1.3,1.3-1.8,1.7c-1.1,0.9-1.8,1.3-1.8,1.3s0.6-0.5,1.6-1.4
				c0.5-0.5,1.1-1.1,1.6-1.8c0.3-0.4,0.5-0.8,0.6-1.3c0-0.2,0-0.4-0.2-0.4l-0.1-0.1c-0.1,0-0.2,0-0.2,0c-0.1,0-0.2,0-0.4,0
				c-1.1,0.1-2.3,0.6-3.5,1.1c-1.2,0.5-2.6,1-3.9,1.6c-1.4,0.5-2.8,1.1-4.3,1.6c-0.7,0.2-1.5,0.5-2.3,0.6c-0.4,0.1-0.8,0.1-1.3,0
				c-0.1,0-0.3-0.1-0.4-0.1l-0.1-0.1l0,0l0,0c0,0-0.1-0.1-0.1-0.1l-0.1-0.1c-0.2-0.2-0.4-0.5-0.4-0.8c-0.1-0.5,0.1-1,0.2-1.4
				c0.1-0.4,0.3-0.8,0.5-1.1c0.4-0.7,0.8-1.4,1.3-2c0.9-1.3,1.9-2.5,2.7-3.6c0.4-0.6,0.8-1.2,1-1.7c0.1-0.5-0.2-1-0.7-1.3
				c-0.5-0.3-1.1-0.4-1.7-0.4c-0.6,0-1.1,0.1-1.7,0.4c-1,0.4-2,0.9-2.8,1.4c-0.8,0.5-1.5,0.9-2.1,1.3c-0.6,0.4-1,0.7-1.3,0.9
				C27,34.5,26.9,34.7,26.9,34.7z"/>
		</g>
	</g>
</g>
</svg>
