<?xml version="1.0" encoding="utf-8"?>
<!-- Generator: Adobe Illustrator 19.2.1, SVG Export Plug-In . SVG Version: 6.00 Build 0)  -->
<svg version="1.1" id="Capa_1" xmlns="http://www.w3.org/2000/svg" xmlns:xlink="http://www.w3.org/1999/xlink" x="0px" y="0px"
	 viewBox="0 0 94.7 94.7" style="enable-background:new 0 0 94.7 94.7;" xml:space="preserve">
   <style type="text/css">
   	.st0{fill:none;stroke:#00c1eb;stroke-width:1.5;stroke-miterlimit:10;}
   	.st1{fill:none;stroke:#00c1eb;stroke-width:1.5;stroke-linejoin:round;stroke-miterlimit:10;}
   	.st2{fill:none;stroke:#00c1eb;stroke-width:1.5;stroke-miterlimit:10;}
     .st3{fill:none;stroke:#00c1eb;}
   	.st4{fill:none;stroke:#00c1eb;}
   </style>
<g>
	<circle class="st0" cx="51.8" cy="47.4" r="40"/>
	<g>
		<path class="st1" d="M64.4,24.1H52.6L46.7,42h3.9c1.4,0,1.8,0.7,2.6,1.8L58,32l1.2,0l3.9,11.8l-10,0c0.5,0.7,0.6,7.8,0.6,7.8h11.1
			l1.7,6.6h9L64.4,24.1z"/>
		<path class="st1" d="M54.5,65.7c-0.5-1.5-0.8-6.4-0.8-10.2c0-0.5-0.1-0.9-0.3-1.3c0.2-0.5,0.3-1,0.3-1.5v-7c0-2.1-1.7-3.8-3.8-3.8
			h-3.6c0-0.4-0.1-0.9-0.1-1.3c0-0.4,0-0.7,0-1.1c0-0.4,0-0.7,0-0.9c0-0.6,0.1-1.1,0.2-1.6c0.1-0.5,0.2-0.9,0.3-1c0,0,0,0,0-0.1
			c0-0.1,0.1-0.1,0.1-0.2c1.5-2.8,0.4-6.3-2.4-7.8c-0.8-0.4-1.8-0.7-2.7-0.7c-0.9,0-1.9,0.2-2.7,0.7c-2.8,1.5-3.9,5-2.4,7.8
			c0,0,0,0.1,0.1,0.2c0,0,0,0,0,0.1c0,0.1,0.2,0.5,0.3,1c0.1,0.5,0.2,1,0.2,1.6c0,0.3,0,0.6,0,0.9c0,0.3,0,0.7,0,1.1
			c0,0.4,0,0.8-0.1,1.3h-3.6c-2.1,0-3.8,1.7-3.8,3.8v7c0,0.5,0.1,1.1,0.3,1.5c-0.2,0.4-0.3,0.8-0.3,1.3c0,3.8-0.3,8.7-0.8,10.2
			c-0.9,0.8-1.1,1.9-0.9,2.7c0.5,2.2,2.8,2.2,3.6,2.2c1.8,0,5-0.3,5.1-0.3c0.2,0,0.4-0.1,0.6-0.1c0.2,0.1,0.4,0.1,0.6,0.1l3.7,0
			l3.7,0c0.2,0,0.4,0,0.6-0.1c0.2,0.1,0.4,0.1,0.6,0.1c0.1,0,3.4,0.3,5.1,0.3c0.8,0,3.1,0,3.6-2.2C55.6,67.6,55.4,66.5,54.5,65.7z
			 M47,67.8l-1.4-6.2l-0.7,6.1l-6.2,0l-2.2-3.6v3.7c0,0-7.2,0.7-5.7,0c1.6-0.7,1.6-12.1,1.6-12.1h9.3h9.3c0,0,0,11.4,1.6,12.1
			C54.2,68.5,47,67.8,47,67.8z"/>
	</g>
</g>
</svg>
