<?xml version="1.0" encoding="utf-8"?>
<!-- Generator: Adobe Illustrator 19.2.1, SVG Export Plug-In . SVG Version: 6.00 Build 0)  -->
<svg version="1.1" id="Capa_1" xmlns="http://www.w3.org/2000/svg" xmlns:xlink="http://www.w3.org/1999/xlink" x="0px" y="0px"
	 viewBox="0 0 94.7 94.7" style="enable-background:new 0 0 94.7 94.7;" xml:space="preserve">
<style type="text/css">
	.st0{fill:none;stroke:#00c1eb;stroke-width:1.5;stroke-miterlimit:10;}
	.st1{fill:none;stroke:#00c1eb;stroke-width:1.5;stroke-linejoin:round;stroke-miterlimit:10;}
	.st2{fill:none;stroke:#00c1eb;stroke-width:1.5;stroke-miterlimit:10;}
  .st3{fill:none;stroke:#00c1eb;}
	.st4{fill:none;stroke:#00c1eb;}
</style>
<g>
	<g>
		<path class="st0" d="M35.5,47.4c0-1.8-1.5-3.3-3.3-3.3h-9.7c-1.8,0-3.3,1.5-3.3,3.3c0,1.8,1.5,3.3,3.3,3.3h9.7
			C34,50.7,35.5,49.2,35.5,47.4z"/>
		<path class="st0" d="M68.5,44h-4.9c-1.8,0-3.3,1.5-3.3,3.3c0,1.8,1.5,3.3,3.3,3.3h4.9c1.8,0,3.3-1.5,3.3-3.3
			C71.8,45.5,70.3,44,68.5,44z"/>
		<path class="st0" d="M46.7,19.9c-1.8,0-3.3,1.5-3.3,3.3v9.7c0,1.8,1.5,3.3,3.3,3.3c1.8,0,3.3-1.5,3.3-3.3v-9.7
			C50,21.4,48.6,19.9,46.7,19.9z"/>
		<path class="st0" d="M46.7,58.6c-1.8,0-3.3,1.5-3.3,3.3v9.7c0,1.8,1.5,3.3,3.3,3.3c1.8,0,3.3-1.5,3.3-3.3v-9.7
			C50,60.1,48.6,58.6,46.7,58.6z"/>
		<path class="st0" d="M31.9,27.9c-1.3-1.3-3.4-1.3-4.7,0c-1.3,1.3-1.3,3.4,0,4.7l6.9,6.9c0.6,0.6,1.5,1,2.3,1c0.9,0,1.7-0.4,2.3-1
			c0.6-0.6,1-1.5,1-2.3c0-0.8-0.4-1.7-1-2.3L31.9,27.9z"/>
		<path class="st0" d="M59.3,55.3c-0.6-0.6-1.5-1-2.3-1c-0.8,0-1.7,0.4-2.3,1c-1.3,1.3-1.3,3.4,0,4.7l6.9,6.9c0.6,0.6,1.5,1,2.3,1
			c0.8,0,1.7-0.4,2.3-1c1.3-1.3,1.3-3.4,0-4.7L59.3,55.3z"/>
		<path class="st0" d="M36.4,54.4c-0.9,0-1.7,0.4-2.3,1l-6.9,6.8c-0.6,0.6-1,1.5-1,2.3c0,0.8,0.4,1.7,1,2.3c0.6,0.6,1.5,1,2.3,1
			c0.8,0,1.7-0.4,2.3-1l6.9-6.8c0.6-0.6,1-1.5,1-2.3c0-0.9-0.4-1.7-1-2.3C38.2,54.7,37.3,54.4,36.4,54.4z"/>
	</g>
	<circle class="st0" cx="47.3" cy="45.3" r="42.9"/>
</g>
</svg>
