<svg id="Capa_1" data-name="Capa 1" xmlns="http://www.w3.org/2000/svg" viewBox="0 0 94.7 94.7"><defs>
  <style>.cls-1{fill:none;stroke:#00c1eb;stroke-miterlimit:10;stroke-width:1.5px;}</style>
</defs><title>icon_2</title><circle class="cls-1" cx="47.3" cy="45.25" r="40"/><path class="cls-1" d="M47.4,19.55H46.9a9.91,9.91,0,0,0-6.7,2.9,8.89,8.89,0,0,0-2,4.7c-0.5,5.9,3.8,8,7.7,10.1,4.1,2.2,8.37,4.36,12.5,6.5a20.15,20.15,0,0,1,5.6,3.9c2.7,3,4.4,6.8,4.1,12.4a11.38,11.38,0,0,0,1.8-2.5,27.44,27.44,0,0,0,3-10.2c0-.1.2-2.9,0.1-4.2C72.1,28.95,61.7,20,48.1,19.45a1.7,1.7,0,0,1-.7.1h0Zm-18.3,8a21.2,21.2,0,0,0-5.5,8.3,23.47,23.47,0,0,0-1.9,8.3c0,0.7,0,1.4,0,2.1,0.2,7.21,3.42,12.58,7.2,16.7a23.05,23.05,0,0,0,16.4,7.8c0.6,0,1.2.1,1.8,0.1a13.28,13.28,0,0,0,1.6-.1,11.69,11.69,0,0,0,7.1-3.7c2-2.1,4.46-6.09,3.3-10.3-0.83-3-3.81-4.89-6.6-6.4-4.41-2.38-8.72-4.46-13.1-6.8a25,25,0,0,1-6-3.9,16.07,16.07,0,0,1-4.1-8.1,22.45,22.45,0,0,1-.2-4h0Z"/></svg>
