<svg id="Capa_1" data-name="Capa 1" xmlns="http://www.w3.org/2000/svg" viewBox="0 0 94.7 94.7"><defs>
  <style>.cls-1{fill:none;stroke:#00c1eb;stroke-miterlimit:10;stroke-width:1.5px;}</style></defs><title>icon_3</title><circle class="cls-1" cx="47.3" cy="45.25" r="40"/><path class="cls-1" d="M36,20.85H26.9a1.43,1.43,0,0,0-1.4,1.4v9.1a1.43,1.43,0,0,0,1.4,1.4H36a1.43,1.43,0,0,0,1.4-1.4v-9.1h0A1.5,1.5,0,0,0,36,20.85Z"/><path class="cls-1" d="M42.6,32.65h9.1a1.43,1.43,0,0,0,1.4-1.4v-9.1a1.43,1.43,0,0,0-1.4-1.4H42.6a1.43,1.43,0,0,0-1.4,1.4v9.1A1.5,1.5,0,0,0,42.6,32.65Z"/><path class="cls-1" d="M58.4,32.65h9.1a1.43,1.43,0,0,0,1.4-1.4v-9.1h0a1.43,1.43,0,0,0-1.4-1.4H58.4a1.43,1.43,0,0,0-1.4,1.4v9.1A1.37,1.37,0,0,0,58.4,32.65Z"/><path class="cls-1" d="M36,36.75H26.9a1.43,1.43,0,0,0-1.4,1.4v9.1a1.43,1.43,0,0,0,1.4,1.4H36a1.43,1.43,0,0,0,1.4-1.4v-9.1h0A1.5,1.5,0,0,0,36,36.75Z"/><path class="cls-1" d="M67.5,48.55a1.43,1.43,0,0,0,1.4-1.4v-9.1h0a1.43,1.43,0,0,0-1.4-1.4H58.4a1.43,1.43,0,0,0-1.4,1.4v7.8c1.6,0.9,3.2,1.8,4.9,2.7h5.6Z"/><path class="cls-1" d="M36,52.55H26.9a1.43,1.43,0,0,0-1.4,1.4v9.1a1.43,1.43,0,0,0,1.4,1.4H36a1.43,1.43,0,0,0,1.4-1.4v-9.1A1.5,1.5,0,0,0,36,52.55Z"/><path class="cls-1" d="M42.6,52.55a1.43,1.43,0,0,0-1.4,1.4v9.1a1.43,1.43,0,0,0,1.4,1.4h9.1a1.43,1.43,0,0,0,1.4-1.4v-5.4l-2.8-5.1H42.6Z"/><path class="cls-1" d="M47.3,43.25l5.8,2.2v-7.4h0a1.43,1.43,0,0,0-1.4-1.4H42.6a1.43,1.43,0,0,0-1.4,1.4v9.1a1.43,1.43,0,0,0,1.4,1.4h6.7Z"/><polygon class="cls-1" points="50.94 46.81 62.86 71.84 63.04 58.91 76.34 58.91 50.94 46.81"/></svg>
