<svg id="Capa_1" data-name="Capa 1" xmlns="http://www.w3.org/2000/svg" viewBox="0 0 28 28"><defs><style>.cls-1{fill:#008ED6;}.cls-2{fill:#fff;}</style></defs><title>search</title><rect class="cls-1" width="28" height="28"/><path class="cls-2" d="M-161.8,68.95a0.5,0.5,0,0,0,.36.15,0.52,0.52,0,0,0,.36-0.15l4.18-4.18a7.31,7.31,0,0,0,4.81,1.8,7.35,7.35,0,0,0,7.34-7.34,7.34,7.34,0,0,0-7.34-7.34,7.34,7.34,0,0,0-7.34,7.34,7.31,7.31,0,0,0,1.8,4.81l-4.18,4.18A0.52,0.52,0,0,0-161.8,68.95Zm9.72-3.41a6.32,6.32,0,0,1-6.31-6.31,6.31,6.31,0,0,1,6.31-6.31,6.31,6.31,0,0,1,6.31,6.31A6.32,6.32,0,0,1-152.08,65.54Z" transform="translate(167.35 -46.5)"/></svg>