<?xml version="1.0" encoding="utf-8"?>
<!-- Generator: Adobe Illustrator 19.2.1, SVG Export Plug-In . SVG Version: 6.00 Build 0)  -->
<svg version="1.1" id="Capa_1" xmlns="http://www.w3.org/2000/svg" xmlns:xlink="http://www.w3.org/1999/xlink" x="0px" y="0px"
	 viewBox="740.951 0 94.736 94.736" enable-background="new 740.951 0 94.736 94.736" xml:space="preserve">
<g>
	<circle fill="none" stroke="#000000" stroke-width="7" stroke-miterlimit="10" cx="788.319" cy="47.368" r="70.666"/>
	<g>
		<path d="M840.434,71.498c-0.404-0.314-51.426-28.277-51.89-28.474l28.47,51.911c0.058-7.809,0.011-15.622,0.021-23.431
			C824.833,71.494,832.636,71.504,840.434,71.498z"/>
		<g>
			<path d="M768.666,4.226h-16.075c-1.32,0-2.387,1.067-2.387,2.387v16.083c0,1.32,1.067,2.387,2.387,2.387h16.083
				c1.32,0,2.387-1.067,2.387-2.387V6.613h-0.008C771.053,5.293,769.987,4.226,768.666,4.226z"/>
			<path d="M780.419,25.082h16.074c1.321,0,2.387-1.067,2.387-2.387V6.613c0-1.32-1.066-2.387-2.387-2.387h-16.074
				c-1.321,0-2.387,1.067-2.387,2.387v16.083C778.033,24.016,779.098,25.082,780.419,25.082z"/>
			<path d="M808.246,25.082h16.082c1.321,0,2.388-1.067,2.388-2.387V6.613h-0.008c0-1.32-1.067-2.387-2.388-2.387h-16.074
				c-1.321,0-2.387,1.067-2.387,2.387v16.083C805.859,24.016,806.925,25.082,808.246,25.082z"/>
			<path d="M768.666,32.204h-16.075c-1.32,0-2.387,1.067-2.387,2.388v16.074c0,1.321,1.067,2.387,2.387,2.387h16.083
				c1.32,0,2.387-1.066,2.387-2.387V34.592h-0.008C771.053,33.27,769.987,32.204,768.666,32.204z"/>
			<path d="M798.88,44.527v-9.935c0-1.321-1.066-2.388-2.387-2.388h-16.074c-1.321,0-2.387,1.067-2.387,2.388v16.074
				c0,1.321,1.066,2.387,2.387,2.387h9.632l-9.644-17.585C780.407,35.468,792.93,41.276,798.88,44.527z"/>
			<path d="M824.328,53.052c1.321,0,2.388-1.066,2.388-2.387V34.592h-0.008c0-1.321-1.067-2.388-2.388-2.388h-16.074
				c-1.321,0-2.387,1.067-2.387,2.388v13.75c2.764,1.513,5.679,3.108,8.604,4.711H824.328z"/>
			<path d="M768.666,60.175h-16.075c-1.32,0-2.387,1.067-2.387,2.388v16.081c0,1.321,1.067,2.388,2.387,2.388h16.083
				c1.32,0,2.387-1.067,2.387-2.388V62.562C771.053,61.25,769.987,60.175,768.666,60.175z"/>
			<path d="M780.419,60.175c-1.321,0-2.387,1.067-2.387,2.388v16.081c0,1.321,1.066,2.388,2.387,2.388h16.074
				c1.321,0,2.387-1.067,2.387-2.388V69.15l-4.922-8.975H780.419z"/>
		</g>
	</g>
</g>
</svg>
