<?xml version="1.0" encoding="utf-8"?>
<!-- Generator: Adobe Illustrator 19.2.1, SVG Export Plug-In . SVG Version: 6.00 Build 0)  -->
<svg version="1.1" id="Capa_1" xmlns="http://www.w3.org/2000/svg" xmlns:xlink="http://www.w3.org/1999/xlink" x="0px" y="0px"
	 viewBox="177.056 0 94.736 94.736" enable-background="new 177.056 0 94.736 94.736" xml:space="preserve">
<g>
	<circle fill="none" stroke="#000000" stroke-width="7" stroke-miterlimit="10" cx="215.145" cy="47.368" r="70.666"/>
	<path d="M259.255,41.632L193.637,2.569c-1.447-0.861-3.251-0.877-4.712-0.046c-1.461,0.831-2.37,2.392-2.37,4.071v81.34
		c0,2.584,2.102,4.686,4.685,4.686c2.583,0,4.684-2.102,4.684-4.686V14.836l52.041,30.979l-39.027,25.144
		c-2.17,1.4-2.798,4.304-1.4,6.475c1.401,2.171,4.307,2.798,6.476,1.401l45.382-29.24c1.353-0.871,2.175-2.412,2.147-4.021
		C261.514,43.942,260.659,42.467,259.255,41.632z"/>
</g>
</svg>
