<?xml version="1.0" encoding="utf-8"?>
<!-- Generator: Adobe Illustrator 19.2.1, SVG Export Plug-In . SVG Version: 6.00 Build 0)  -->
<svg version="1.1" id="Capa_1" xmlns="http://www.w3.org/2000/svg" xmlns:xlink="http://www.w3.org/1999/xlink" x="0px" y="0px"
	 viewBox="929.163 0 94.736 94.736" enable-background="new 929.163 0 94.736 94.736" xml:space="preserve">
<g>
	<path d="M984.559,59.077c0.265,1.663,0.562,3.55,1.53,5.629c1.314,2.832,3.535,4.521,5.942,4.522l0,0
		c1.818,0,3.649-0.91,5.443-2.703c2.54-2.542,3.305-5.873,2.047-8.912c-1.671-4.033-6.438-6.639-12.145-6.639
		c-1.256,0-2.57,0.12-3.901,0.359c-0.524,0.095-0.953,0.46-1.13,0.96c-0.177,0.499-0.071,1.056,0.275,1.456
		C983.963,55.306,984.24,57.054,984.559,59.077z"/>
	<g>
		<circle fill="none" stroke="#000000" stroke-width="7" stroke-miterlimit="10" cx="976.531" cy="52.691" r="70.666"/>
		<g>
			<path d="M1022.702,86.633c-2.799-4.171-7.054-9.18-11.978-14.106c-2.706-2.705-5.546-5.305-8.214-7.519
				c-0.308-0.257-0.722-0.347-1.11-0.243c-0.387,0.104-0.701,0.388-0.84,0.765c-0.417,1.12-1.097,2.156-2.02,3.079
				c-0.759,0.759-1.545,1.355-2.34,1.772c-0.331,0.176-0.566,0.49-0.639,0.857c-0.071,0.367,0.027,0.747,0.266,1.034
				c2.149,2.567,4.658,5.297,7.257,7.896c8.956,8.956,17.656,15.209,21.159,15.21c0.54,0,0.96-0.147,1.252-0.44
				C1026.871,93.563,1024.735,89.663,1022.702,86.633z"/>
			<path d="M1022.754,10.34H930.71c-0.814,0-1.474,0.661-1.474,1.475v62.498c0,0.813,0.66,1.473,1.474,1.473h63.121l-3.015-3.873
				c-6.103,0-7.922-5.883-8.455-5.883h-43.37V20.095h75.482v45.936h-3.462l9.396,9.755h2.347c0.814,0,1.474-0.66,1.474-1.473V11.815
				C1024.228,11.001,1023.568,10.34,1022.754,10.34z"/>
			<path d="M980.203,49.188c0.279,0.259,0.639,0.397,1.007,0.397c0.137,0,0.276-0.019,0.409-0.06c0.929-0.267,2.3-0.656,3.548-0.987
				c0.303-0.082,0.574-0.256,0.77-0.499c0.345-0.426,0.748-0.874,1.044-1.201c1.47-1.633,3.483-3.868,2.596-6.525
				c-0.457-1.331-1.365-2.315-2.629-2.843c-0.668-0.28-1.396-0.415-2.221-0.415c-2.855,0-6.452,1.728-10.261,3.558
				c-1.698,0.815-4.405,2.117-5.984,2.576c0.371-0.944,1.109-2.261,1.628-3.189c0.902-1.607,1.832-3.269,2.311-4.893
				c1.043-3.533-0.582-5.431-1.651-6.253c0,0-0.019-0.015-0.02-0.016c-0.961-0.721-2.029-1.086-3.177-1.086
				c-3.285,0-6.596,2.913-9.254,5.252c-1.091,0.958-1.937,1.684-2.53,2.111c-0.475,0.341-0.704,0.928-0.583,1.501l0.596,2.828
				c0.095,0.455,0.397,0.836,0.815,1.032c0.418,0.198,0.906,0.187,1.316-0.029c1.274-0.671,2.599-1.836,4.132-3.186
				c1.258-1.105,2.558-2.248,3.748-3.028c0.504-0.328,0.879-0.519,1.151-0.632c-0.341,1.016-1.264,2.666-1.801,3.627
				c-0.916,1.633-1.861,3.323-2.306,4.944c-1.047,3.812,1.168,5.602,2.161,6.19c0.732,0.441,1.556,0.655,2.519,0.655
				c2.532,0,5.707-1.526,9.385-3.292c1.832-0.88,3.727-1.789,5.321-2.378c0.125-0.045,0.246-0.087,0.364-0.129
				c-1.125,1.251-2.453,2.787-2.839,4.582C979.659,48.308,979.824,48.834,980.203,49.188z"/>
		</g>
	</g>
</g>
</svg>
