<?xml version="1.0" encoding="utf-8"?>
<!-- Generator: Adobe Illustrator 19.2.1, SVG Export Plug-In . SVG Version: 6.00 Build 0)  -->
<svg version="1.1" id="Capa_1" xmlns="http://www.w3.org/2000/svg" xmlns:xlink="http://www.w3.org/1999/xlink" x="0px" y="0px"
	 viewBox="546.163 0 94.736 94.736" enable-background="new 546.163 0 94.736 94.736" xml:space="preserve">
<g>
	<circle fill="none" stroke="#000000" stroke-width="7" stroke-miterlimit="10" cx="593.531" cy="47.368" r="70.666"/>
	<g>
		<path id="Simplenote" d="M560.934,78.905c-6.735-7.328-12.066-16.836-12.758-29.588c0-1.238,0-2.481,0-3.719
			c0.272-5.384,1.646-10.265,3.367-14.706c2.229-5.755,5.675-11.258,9.746-14.703c-0.004,2.752,0.068,5.383,0.352,7.085
			c0.862,5.169,3.743,10.829,7.265,14.351c2.855,2.854,6.682,4.814,10.63,6.908c7.879,4.181,15.375,7.874,23.208,12.046
			c5.039,2.687,10.226,6.006,11.692,11.34c2.073,7.542-2.325,14.538-5.849,18.247c-3.245,3.421-7.503,5.764-12.578,6.556
			c-2.006,0-4.014,0-6.023,0C577.547,91.331,567.697,86.261,560.934,78.905z M590.873,33.375
			c7.264,3.806,14.764,7.667,22.148,11.515c3.805,1.983,7.265,4.033,9.919,6.908c4.832,5.236,7.848,12.067,7.263,21.968
			c1.197-1.157,2.283-2.77,3.188-4.429c2.633-4.819,4.766-10.961,5.318-18.072c-0.029-0.207,0.035-0.315,0.175-0.354
			c0-2.362,0-4.725,0-7.086c-3.12-24.924-20.079-39.889-43.938-41.811c-0.767,0-1.534,0-2.303,0
			c-4.661,0.78-9.202,2.111-11.867,5.14c-1.875,2.124-3.349,5.896-3.547,8.326C576.393,25.903,583.864,29.697,590.873,33.375z"/>
	</g>
</g>
</svg>
