<?xml version="1.0" encoding="utf-8"?>
<!-- Generator: Adobe Illustrator 19.2.1, SVG Export Plug-In . SVG Version: 6.00 Build 0)  -->
<svg version="1.1" id="Capa_1" xmlns="http://www.w3.org/2000/svg" xmlns:xlink="http://www.w3.org/1999/xlink" x="0px" y="0px"
	 viewBox="0 0 94.7 94.7" style="enable-background:new 0 0 94.7 94.7;" xml:space="preserve">
<style type="text/css">
	.st0{fill:none;stroke:#000000;stroke-width:3;stroke-miterlimit:10;}
	.st1{fill:none;stroke:#000000;stroke-width:2;stroke-miterlimit:10;}
</style>
<g>
	<g>
		<path class="st0" d="M35.5,45.3c0-1.8-1.5-3.3-3.3-3.3h-9.7c-1.8,0-3.3,1.5-3.3,3.3s1.5,3.3,3.3,3.3h9.7
			C34,48.6,35.5,47.2,35.5,45.3z"/>
		<path class="st0" d="M68.5,42h-4.9c-1.8,0-3.3,1.5-3.3,3.3s1.5,3.3,3.3,3.3h4.9c1.8,0,3.3-1.5,3.3-3.3S70.3,42,68.5,42z"/>
		<path class="st0" d="M46.7,17.8c-1.8,0-3.3,1.5-3.3,3.3v9.7c0,1.8,1.5,3.3,3.3,3.3c1.8,0,3.3-1.5,3.3-3.3v-9.7
			C50,19.3,48.6,17.8,46.7,17.8z"/>
		<path class="st0" d="M46.7,56.5c-1.8,0-3.3,1.5-3.3,3.3v9.7c0,1.8,1.5,3.3,3.3,3.3c1.8,0,3.3-1.5,3.3-3.3v-9.7
			C50,58,48.6,56.5,46.7,56.5z"/>
		<path class="st0" d="M31.9,25.9c-1.3-1.3-3.4-1.3-4.7,0c-1.3,1.3-1.3,3.4,0,4.7l6.9,6.9c0.6,0.6,1.5,1,2.3,1c0.9,0,1.7-0.4,2.3-1
			c0.6-0.6,1-1.5,1-2.3c0-0.8-0.4-1.7-1-2.3L31.9,25.9z"/>
		<path class="st0" d="M59.3,53.2c-0.6-0.6-1.5-1-2.3-1c-0.8,0-1.7,0.4-2.3,1c-1.3,1.3-1.3,3.4,0,4.7l6.9,6.9c0.6,0.6,1.5,1,2.3,1
			c0.8,0,1.7-0.4,2.3-1c1.3-1.3,1.3-3.4,0-4.7L59.3,53.2z"/>
		<path class="st0" d="M36.4,52.3c-0.9,0-1.7,0.4-2.3,1l-6.9,6.8c-0.6,0.6-1,1.5-1,2.3s0.4,1.7,1,2.3c0.6,0.6,1.5,1,2.3,1
			c0.8,0,1.7-0.4,2.3-1l6.9-6.8c0.6-0.6,1-1.5,1-2.3c0-0.9-0.4-1.7-1-2.3C38.2,52.7,37.3,52.3,36.4,52.3z"/>
	</g>
	<circle class="st1" cx="47.3" cy="45.3" r="42.9"/>
</g>
</svg>
