<?xml version="1.0" encoding="utf-8"?>
<!-- Generator: Adobe Illustrator 19.2.1, SVG Export Plug-In . SVG Version: 6.00 Build 0)  -->
<svg version="1.1" id="Capa_1" xmlns="http://www.w3.org/2000/svg" xmlns:xlink="http://www.w3.org/1999/xlink" x="0px" y="0px"
	 viewBox="362.163 0 94.736 94.736" enable-background="new 362.163 0 94.736 94.736" xml:space="preserve">
<g>
	<g>
		<path d="M398.128,51.691c0-3.001-2.442-5.443-5.442-5.443h-15.964c-3.002,0-5.444,2.442-5.444,5.443s2.442,5.443,5.444,5.443
			h15.964C395.687,57.134,398.128,54.692,398.128,51.691z"/>
		<path d="M452.553,46.248h-7.983c-3.001,0-5.443,2.442-5.443,5.443s2.442,5.443,5.443,5.443h7.983c3.001,0,5.443-2.442,5.443-5.443
			S455.554,46.248,452.553,46.248z"/>
		<path d="M416.633,6.336c-3.001,0-5.443,2.442-5.443,5.443v15.965c0,3,2.442,5.442,5.443,5.442s5.443-2.442,5.443-5.442V11.779
			C422.076,8.778,419.634,6.336,416.633,6.336z"/>
		<path d="M416.633,70.195c-3.001,0-5.443,2.442-5.443,5.442v15.964c0,3.002,2.442,5.444,5.443,5.444s5.443-2.442,5.443-5.444
			V75.637C422.076,72.636,419.634,70.195,416.633,70.195z"/>
		<path d="M392.26,19.62c-2.124-2.123-5.575-2.121-7.698,0c-2.122,2.122-2.122,5.575,0,7.698l11.289,11.287
			c1.028,1.029,2.394,1.596,3.848,1.596c1.455,0,2.823-0.566,3.849-1.595c1.028-1.028,1.595-2.394,1.595-3.848
			s-0.566-2.82-1.595-3.848L392.26,19.62z"/>
		<path d="M437.414,64.774c-1.028-1.028-2.394-1.595-3.848-1.595s-2.821,0.566-3.849,1.595c-2.122,2.123-2.122,5.576,0,7.698
			l11.289,11.289c1.028,1.028,2.394,1.594,3.849,1.594s2.822-0.566,3.849-1.594c2.122-2.123,2.122-5.576,0-7.698L437.414,64.774z"/>
		<path d="M399.699,63.18c-1.454,0-2.821,0.566-3.848,1.596l-11.288,11.288c-1.028,1.028-1.595,2.394-1.595,3.848
			s0.566,2.821,1.594,3.848c1.027,1.028,2.394,1.595,3.849,1.595s2.823-0.566,3.848-1.594l11.289-11.289
			c1.028-1.028,1.595-2.394,1.595-3.848s-0.566-2.821-1.595-3.849S401.153,63.18,399.699,63.18z"/>
	</g>
	<circle fill="none" stroke="#000000" stroke-width="7" stroke-miterlimit="10" cx="414.637" cy="52.691" r="70.666"/>
</g>
</svg>
