<?xml version="1.0" encoding="utf-8"?>
<!-- Generator: Adobe Illustrator 19.0.0, SVG Export Plug-In . SVG Version: 6.00 Build 0)  -->
<svg version="1.1" id="Слой_1" xmlns="http://www.w3.org/2000/svg" xmlns:xlink="http://www.w3.org/1999/xlink" x="0px" y="0px"
	 viewBox="0 0 170.1 170.1" style="enable-background:new 0 0 170.1 170.1;" xml:space="preserve">
<g>
	<path d="M1.4,1.4v166.7h166.7V1.4H1.4z M167,167H2.5V2.6H167V167z"/>
	<path d="M29.4,46.3c0-0.1,0-0.2,0-0.4c0-0.1,0-0.2,0-0.4l11.8,20.1c0.1,0.2,0.2,0.4,0.5,0.4h0.2c0.2,0,0.4-0.1,0.5-0.4l11.4-20.1
		c0,0.1,0,0.2,0,0.4c0,0,0,0.1,0,0.2v25h1V43.8h-0.6c-0.1,0-0.1,0-0.2,0c-0.1,0.1-0.1,0.1-0.2,0.2L42,64.2c0,0.1-0.1,0.2-0.1,0.4
		c0,0.1-0.1,0.2-0.1,0.4l-0.4-0.7L29.6,44.2c-0.1-0.1-0.1-0.2-0.2-0.2c0,0-0.1,0-0.2,0h-0.6v27.3h1V46.3z"/>
	<path d="M90.3,46.3c0-0.1,0-0.2,0-0.4c0-0.1,0-0.2,0-0.4L109,70.9c0.1,0.1,0.4,0.2,0.5,0.2h0.5V43.8h-1v24.8c0,0.1,0,0.2,0,0.4
		c0,0.1,0,0.2,0,0.4L90.4,44.2c-0.1-0.1-0.1-0.2-0.2-0.2c0-0.1-0.1-0.1-0.4-0.1h-0.5v27.3h1V46.3z"/>
	<polygon points="41.1,105.6 42.2,105.6 42.2,79.2 54.7,79.2 54.7,78.3 54.7,78.1 28.5,78.1 28.5,79.1 41.1,79.1 	"/>
	<rect x="115.5" y="91.2" width="25.5" height="1"/>
	<polygon points="115.5,105.5 141,105.5 141.1,104.6 115.5,104.6 	"/>
	<rect x="115.5" y="78.3" width="25.5" height="1"/>
	<path d="M29.3,125.8c0.2,0,0.4,0.1,0.6,0.1c0.1,0.1,0.4,0.1,0.6,0.1c0.4,0,0.7,0,1-0.1c0.2-0.1,0.5-0.2,0.7-0.5
		c0.2-0.2,0.4-0.5,0.5-0.7c0.1-0.2,0.1-0.6,0.1-0.8c0-0.2,0-0.5-0.1-0.7c-0.1-0.2-0.2-0.4-0.4-0.5c-0.1-0.1-0.2-0.2-0.5-0.4
		c-0.2-0.1-0.4-0.1-0.6-0.2c-0.2-0.1-0.4-0.1-0.6-0.2c-0.1-0.1-0.4-0.1-0.5-0.2c-0.1-0.1-0.2-0.2-0.4-0.4c-0.1-0.1-0.1-0.2-0.1-0.5
		c0-0.1,0.1-0.2,0.1-0.4c0-0.1,0.1-0.2,0.2-0.4c0.1-0.1,0.2-0.2,0.4-0.2c0.1-0.1,0.2-0.1,0.5-0.1c0.2,0,0.5,0.1,0.6,0.1
		c0.1,0,0.2,0,0.4,0.1c0.1,0,0.1,0.1,0.2,0.1c0.1,0.1,0.2,0.1,0.2,0.1c0.1,0,0.1,0,0.2-0.1l0.4-0.2c-0.2-0.2-0.5-0.4-0.8-0.5
		c-0.4-0.1-0.7-0.1-1.1-0.1s-0.7,0-1,0.1c-0.4,0-0.6,0.2-0.7,0.4c-0.1,0.1-0.2,0.4-0.4,0.6c-0.1,0.2-0.1,0.5-0.1,0.7
		c0,0.2,0,0.5,0.1,0.7c0.1,0.1,0.2,0.4,0.4,0.5c0.1,0.1,0.2,0.2,0.5,0.4c0.2,0.1,0.4,0.1,0.6,0.2c0.2,0.1,0.4,0.1,0.6,0.2
		c0.1,0.1,0.4,0.1,0.5,0.2c0.1,0.1,0.2,0.2,0.4,0.4c0.1,0.1,0.1,0.2,0.1,0.5c0,0.1,0,0.4-0.1,0.5c0,0.1-0.1,0.2-0.2,0.4
		c-0.1,0.1-0.4,0.2-0.5,0.2c-0.2,0.1-0.4,0.1-0.6,0.1c-0.2,0-0.4,0-0.6-0.1c-0.2-0.1-0.4-0.1-0.5-0.2c-0.1-0.1-0.2-0.1-0.4-0.2
		c-0.1-0.1-0.1-0.1-0.2-0.1h-0.1c-0.1,0-0.1,0.1-0.1,0.1l-0.2,0.5c0.1,0.1,0.4,0.2,0.5,0.4C29,125.7,29.1,125.7,29.3,125.8z"/>
	<polygon points="48.9,119.8 51.1,119.8 51.1,125.8 52,125.8 52,119.8 54.2,119.8 54.2,119 48.9,119 	"/>
	<path d="M75.1,123.2c0,0.2,0,0.5-0.1,0.7s-0.2,0.5-0.4,0.6c-0.2,0.1-0.4,0.2-0.6,0.4c-0.2,0.1-0.5,0.1-0.7,0.1
		c-0.4,0-0.6,0-0.6-0.1c-0.2,0-0.5-0.2-0.6-0.4c-0.1-0.1-0.2-0.4-0.4-0.6c-0.1-0.2-0.1-0.5-0.1-0.7v-4h-1v4c0,0.4,0.1,0.7,0.2,1.1
		c0.2,0.4,0.4,0.6,0.6,0.8c0.2,0.2,0.5,0.5,0.8,0.6c0.2,0.1,0.6,0.2,1.1,0.2c0.4,0,0.7-0.1,1.1-0.2c0.4-0.1,0.6-0.4,0.8-0.6
		c0.1-0.2,0.4-0.5,0.5-0.8c0.1-0.4,0.2-0.7,0.2-1.1v-4h-1V123.2z"/>
	<path d="M97.9,120.1c-0.4-0.4-0.7-0.6-1.1-0.7c-0.4-0.1-0.8-0.2-1.3-0.2H93v6.8h2.5c0.5,0,1-0.1,1.3-0.2c0.5-0.2,0.8-0.5,1.1-0.7
		c0.4-0.4,0.6-0.7,0.7-1.1c0.1-0.5,0.2-1,0.2-1.4c0-0.6,0-1.1-0.2-1.3C98.4,120.7,98.1,120.3,97.9,120.1z M97.6,123.6
		c-0.1,0.4-0.2,0.6-0.5,0.8c-0.1,0.2-0.5,0.4-0.7,0.5c-0.2,0.1-0.6,0.1-1,0.1H94V120h1.7c0.4,0,0.7,0,1,0.1c0.2,0.1,0.5,0.2,0.7,0.5
		c0.2,0.2,0.4,0.5,0.5,0.8s0.1,0.7,0.1,1.1C97.9,122.8,97.9,123.2,97.6,123.6z"/>
	<rect x="115.6" y="119" width="1" height="6.8"/>
	<path d="M127.5,71.1c7.5,0,13.7-6.2,13.7-13.7s-6.2-13.7-13.7-13.7c-7.5,0-13.7,6.2-13.7,13.7S120,71.1,127.5,71.1z M127.5,44.7
		c6.9,0,12.6,5.7,12.7,12.7c0,7-5.7,12.7-12.7,12.7c-7,0-12.7-5.7-12.7-12.7C114.8,50.5,120.5,44.7,127.5,44.7z"/>
	<path d="M72.1,71.1c7.5,0,13.7-6.2,13.7-13.7s-6.2-13.7-13.7-13.7c-7.5,0-13.7,6.2-13.7,13.7S64.6,71.1,72.1,71.1z M72.1,44.7
		c6.9,0,12.6,5.7,12.7,12.7c0,7-5.7,12.7-12.7,12.7c-7,0-12.7-5.7-12.7-12.7C59.4,50.5,65.1,44.7,72.1,44.7z"/>
	<path d="M72,105.5c7.6,0,13.7-6.1,13.7-13.7c0-7.5-6.2-13.7-13.7-13.7s-13.7,6.2-13.7,13.7S64.5,105.5,72,105.5z M72,79.2
		c7,0,12.7,5.7,12.7,12.7c0,7-5.7,12.7-12.7,12.7c-7,0-12.7-5.7-12.7-12.7C59.3,84.9,65,79.2,72,79.2z"/>
	<path d="M90.3,80.6c0-0.1,0-0.2,0-0.4c0-0.1,0-0.2,0-0.4l18.8,25.4c0.1,0.1,0.4,0.2,0.5,0.2h0.5V78.3h-1V103c0,0.1,0,0.2,0,0.4
		s0,0.2,0,0.4L90.4,78.5c-0.1-0.1-0.1-0.2-0.2-0.2c0,0-0.1,0-0.4-0.1h-0.5v27.3h1V80.6z"/>
	<path d="M137.3,119.1c-1.8,0-3.3,1.4-3.3,3.3c0,1.8,1.4,3.3,3.3,3.3c1.9,0,3.4-1.5,3.3-3.3C140.7,120.7,139.2,119.1,137.3,119.1z
		 M137.3,124.7c-1.3,0-2.4-1.1-2.4-2.4c0-1.3,1.1-2.4,2.4-2.4c1.3,0,2.4,1.1,2.4,2.4C139.7,123.6,138.6,124.7,137.3,124.7z"/>
</g>
</svg>
