<?xml version="1.0" encoding="utf-8"?>
<!-- Generator: Adobe Illustrator 19.0.0, SVG Export Plug-In . SVG Version: 6.00 Build 0)  -->
<svg version="1.1" id="Слой_1" xmlns="http://www.w3.org/2000/svg" xmlns:xlink="http://www.w3.org/1999/xlink" x="0px" y="0px"
	 viewBox="0 0 283.5 147.4" style="enable-background:new 0 0 283.5 147.4;" xml:space="preserve">
<style type="text/css">
	.st0{fill:#FFFFFF;}
	.st1{fill:#0D0F0F;}
</style>
<rect id="XMLID_2_" x="-49.6" y="271.4" class="st0" width="0.5" height="3.2"/>
<g id="XMLID_98_">
	<g id="XMLID_109_">
		<g id="XMLID_124_">
			<path id="XMLID_125_" class="st1" d="M132.6,96.6l-23,27.7L70,76.5h16.5l23.1,27.8l22.9-27.8h12.7v67.5h-12.7V96.6z"/>
		</g>
	</g>
	<g id="XMLID_76_">
		<path id="XMLID_105_" class="st1" d="M184.4,135.5v8.2h-0.6v-1.3c-0.5,0.9-1.4,1.4-2.4,1.4c-1.6,0-2.9-1.1-2.9-3
			c0-1.9,1.3-3,2.9-3c1,0,1.9,0.4,2.4,1.3v-3.7H184.4z M179.1,140.8c0,1.6,1.1,2.4,2.4,2.4c1.4,0,2.4-1,2.4-2.4c0-1.4-1-2.4-2.4-2.4
			C180.1,138.4,179.1,139.2,179.1,140.8z"/>
		<path id="XMLID_102_" class="st1" d="M188.4,140.8c0-1.7,1.3-3,2.9-3c1.6,0,3.1,1,2.8,3.2H189c0.1,1.3,1.2,2.1,2.3,2.1
			c0.8,0,1.6-0.3,2.1-0.9l0.4,0.3c-0.6,0.7-1.6,1.1-2.5,1.1C189.7,143.7,188.4,142.6,188.4,140.8z M193.6,140.5
			c0-1.4-0.9-2.2-2.3-2.2c-1.2,0-2.2,0.8-2.3,2.2H193.6z"/>
		<path id="XMLID_100_" class="st1" d="M202.1,138.9c-0.6-0.5-1.2-0.6-1.8-0.6c-0.9,0-1.8,0.3-1.7,1.1c0,0.8,1,0.9,1.7,1
			c1,0.2,2.4,0.3,2.4,1.7c0,1.3-1.4,1.6-2.4,1.6c-1,0-2-0.4-2.5-1.2l0.4-0.4c0.5,0.7,1.3,1,2.1,1c0.7,0,1.8-0.2,1.8-1.1
			c0-0.8-0.9-1-1.9-1.1c-1.1-0.2-2.2-0.4-2.2-1.5c0-1.1,1.1-1.6,2.3-1.6c0.8,0,1.6,0.2,2.1,0.8L202.1,138.9z"/>
		<path id="XMLID_97_" class="st1" d="M207.3,136c0,0.6-0.9,0.6-0.9,0C206.4,135.4,207.3,135.4,207.3,136z M206.6,137.9v5.8h0.6
			v-5.8H206.6z"/>
		<path id="XMLID_94_" class="st1" d="M216,137.7l0.4,0.3l-0.6,0.7c0.4,0.4,0.7,1,0.7,2c0,1-0.6,2-1.5,2.4c1,0.4,1.6,1.1,1.6,2.1
			c0,1.5-1.2,2.3-2.7,2.3c-1.5,0-2.7-0.8-2.7-2.3h0.6c0,1.2,1,1.7,2.2,1.7c1.2,0,2.2-0.5,2.2-1.7c0-1.2-1.1-1.7-2.2-1.7
			c-1.7,0-2.7-1.2-2.7-2.8c0-1.8,1.2-2.8,2.7-2.8c0.6,0,1.2,0.2,1.6,0.5L216,137.7z M211.7,140.6c0,1.2,0.8,2.2,2.1,2.2
			c1.2,0,2.2-1,2.2-2.2c0-1.5-1-2.2-2.2-2.2C212.6,138.4,211.7,139.1,211.7,140.6z"/>
		<path id="XMLID_92_" class="st1" d="M220.8,137.9v1c0.4-0.8,1.2-1.1,2-1.1c1.5,0,2.6,0.9,2.6,2.5v3.3h-0.6v-3.3c0-1.3-0.8-2-2-2
			c-1.2,0-2,0.9-2,2.1v3.2h-0.6v-5.8H220.8z"/>
		<path id="XMLID_90_" class="st1" d="M239.3,138.9c-0.6-0.5-1.2-0.6-1.8-0.6c-0.9,0-1.8,0.3-1.7,1.1c0,0.8,1,0.9,1.7,1
			c1,0.2,2.4,0.3,2.4,1.7c0,1.3-1.4,1.6-2.4,1.6c-1,0-2-0.4-2.5-1.2l0.4-0.4c0.5,0.7,1.3,1,2.1,1c0.7,0,1.8-0.2,1.8-1.1
			c0-0.8-0.9-1-1.9-1.1c-1.1-0.2-2.2-0.4-2.2-1.5c0-1.1,1.1-1.6,2.3-1.6c0.8,0,1.6,0.2,2.1,0.8L239.3,138.9z"/>
		<path id="XMLID_88_" class="st1" d="M245,136.2v1.7h2v0.5h-2v3.5c0,0.8,0.2,1.3,1.1,1.3c0.3,0,0.6-0.1,0.9-0.2l0.2,0.5
			c-0.4,0.2-0.7,0.3-1.1,0.3c-1.2,0-1.6-0.7-1.6-1.9v-3.5h-1.2v-0.5h1.2v-1.7L245,136.2z"/>
		<path id="XMLID_86_" class="st1" d="M255.5,143.7v-1c-0.4,0.8-1.2,1.1-2,1.1c-1.5,0-2.6-0.9-2.6-2.5v-3.3h0.6v3.3c0,1.3,0.8,2,2,2
			c1.2,0,2-0.9,2-2.1v-3.2h0.6v5.8H255.5z"/>
		<path id="XMLID_83_" class="st1" d="M265.7,135.5v8.2h-0.6v-1.3c-0.5,0.9-1.4,1.4-2.4,1.4c-1.6,0-2.9-1.1-2.9-3c0-1.9,1.3-3,2.9-3
			c1,0,1.9,0.4,2.4,1.3v-3.7H265.7z M260.4,140.8c0,1.6,1.1,2.4,2.4,2.4c1.4,0,2.4-1,2.4-2.4c0-1.4-1-2.4-2.4-2.4
			C261.5,138.4,260.4,139.2,260.4,140.8z"/>
		<path id="XMLID_80_" class="st1" d="M270.7,136c0,0.6-0.9,0.6-0.9,0C269.8,135.4,270.7,135.4,270.7,136z M269.9,137.9v5.8h0.6
			v-5.8H269.9z"/>
		<path id="XMLID_77_" class="st1" d="M274.6,140.8c0-1.8,1.3-3,2.9-3c1.6,0,2.9,1.2,2.9,3c0,1.8-1.3,2.9-2.9,2.9
			C275.9,143.7,274.6,142.6,274.6,140.8z M279.9,140.8c0-1.5-1.1-2.5-2.4-2.5c-1.3,0-2.4,1-2.4,2.5s1.1,2.4,2.4,2.4
			C278.8,143.2,279.9,142.3,279.9,140.8z"/>
	</g>
	<g id="XMLID_49_">
		<g id="XMLID_184_">
			<path id="XMLID_193_" class="st1" d="M191.6,97.3V86.6c0-2.6-1.4-5-4.1-5c-2.7,0-4.3,2.4-4.3,5v10.7h-4.9v-20h4.6l0.4,2.4
				c1.1-2,3.4-2.8,5.3-2.8c2.4,0,4.8,1,5.9,3.7c1.8-2.8,4.1-3.6,6.7-3.6c5.7,0,8.5,3.5,8.5,9.5v10.8h-4.9V86.5
				c0-2.6-1.1-4.9-3.8-4.9c-2.7,0-4.3,2.3-4.3,4.9v10.7H191.6z"/>
			<path id="XMLID_190_" class="st1" d="M234.1,87.3c0,5.8-3.9,10.4-10.4,10.4c-6.5,0-10.4-4.7-10.4-10.4c0-5.7,4-10.4,10.3-10.4
				C230,76.9,234.1,81.6,234.1,87.3z M218.2,87.3c0,3,1.8,5.9,5.4,5.9c3.6,0,5.4-2.8,5.4-5.9c0-3-2.1-5.9-5.4-5.9
				C220.1,81.4,218.2,84.3,218.2,87.3z"/>
			<path id="XMLID_188_" class="st1" d="M251.8,97.3V86.8c0-3-1.7-5.3-4.8-5.3c-3,0-5.1,2.6-5.1,5.6v10.2h-4.9v-20h4.4l0.3,2.7
				c2-2,4.1-3,6.6-3c4.7,0,8.5,3.5,8.5,9.8v10.5H251.8z"/>
			<path id="XMLID_185_" class="st1" d="M280.4,87.3c0,5.8-3.9,10.4-10.4,10.4c-6.5,0-10.4-4.7-10.4-10.4c0-5.7,4-10.4,10.3-10.4
				C276.3,76.9,280.4,81.6,280.4,87.3z M264.6,87.3c0,3,1.8,5.9,5.4,5.9c3.6,0,5.4-2.8,5.4-5.9c0-3-2.1-5.9-5.4-5.9
				C266.4,81.4,264.6,84.3,264.6,87.3z"/>
		</g>
	</g>
	<g id="XMLID_26_">
		<path id="XMLID_47_" class="st1" d="M186.5,102.1v5.7h5.5v4.3h-5.5v8.6c0,1.9,1.1,2.8,2.6,2.8c0.8,0,1.7-0.2,2.4-0.6l1.4,4.2
			c-1.4,0.6-2.6,0.8-4.1,0.9c-4.3,0.2-7.2-2.3-7.2-7.3V112h-3.7v-4.3h3.7v-5.1L186.5,102.1z"/>
		<path id="XMLID_44_" class="st1" d="M215.2,117.7c0,5.8-3.9,10.4-10.4,10.4c-6.5,0-10.4-4.7-10.4-10.4c0-5.7,4-10.4,10.3-10.4
			C211.1,107.3,215.2,112,215.2,117.7z M199.3,117.7c0,3,1.8,5.9,5.4,5.9c3.6,0,5.4-2.8,5.4-5.9c0-3-2.1-5.9-5.4-5.9
			C201.2,111.8,199.3,114.7,199.3,117.7z"/>
		<path id="XMLID_42_" class="st1" d="M232.9,127.7v-10.5c0-3-1.7-5.3-4.8-5.3c-3,0-5.1,2.6-5.1,5.6v10.2H218v-20h4.4l0.3,2.7
			c2-2,4.1-3,6.6-3c4.7,0,8.5,3.5,8.5,9.8v10.5H232.9z"/>
		<path id="XMLID_39_" class="st1" d="M245.9,119.4c0.3,2.5,2.5,4.3,6,4.3c1.8,0,4.2-0.7,5.3-1.9l3.2,3.1c-2.1,2.2-5.5,3.2-8.6,3.2
			c-6.9,0-11-4.3-11-10.7c0-6.1,4.1-10.5,10.6-10.5c6.7,0,10.9,4.1,10.1,12.4H245.9z M256.7,115.4c-0.3-2.6-2.3-3.9-5.2-3.9
			c-2.7,0-4.9,1.3-5.6,3.9H256.7z"/>
	</g>
	<polygon id="XMLID_1_" class="st1" points="15.5,131.2 15.5,14.1 132.5,14.1 132.5,59.7 145.3,59.7 145.3,1.4 2.8,1.4 2.8,143.9 
		103.8,143.9 93.2,131.2 	"/>
</g>
</svg>
