<?xml version="1.0" encoding="utf-8"?>
<!-- Generator: Adobe Illustrator 19.0.0, SVG Export Plug-In . SVG Version: 6.00 Build 0)  -->
<svg version="1.1" id="Слой_1" xmlns="http://www.w3.org/2000/svg" xmlns:xlink="http://www.w3.org/1999/xlink" x="0px" y="0px"
	 viewBox="0 0 141.7 141.7" style="enable-background:new 0 0 141.7 141.7;" xml:space="preserve">
<style type="text/css">
	.st0{fill:none;stroke:#0D0F0F;stroke-width:2;stroke-miterlimit:10;}
	.st1{fill:none;stroke:#0E0F10;stroke-width:1.5;stroke-miterlimit:10;}
	.st2{fill:none;stroke:#000000;stroke-width:1.8;stroke-miterlimit:10;}
</style>
<g id="XMLID_24_">
	<line id="XMLID_26_" class="st0" x1="31.5" y1="37.8" x2="44.2" y2="47"/>
	<line id="XMLID_14_" class="st0" x1="21.4" y1="70.5" x2="36.8" y2="67.6"/>
	<line id="XMLID_19_" class="st0" x1="42" y1="105.2" x2="51.9" y2="93.1"/>
	<line id="XMLID_20_" class="st0" x1="108.3" y1="65.4" x2="120.3" y2="66.3"/>
	<line id="XMLID_21_" class="st0" x1="93.6" y1="86.8" x2="104.5" y2="98.1"/>
	<line id="XMLID_25_" class="st0" x1="62.1" y1="20.8" x2="64.9" y2="29.6"/>
</g>
<g id="XMLID_5_">
	<g id="XMLID_6_">
		<polygon id="XMLID_8_" class="st1" points="89.7,11 49.5,74.2 71.2,72.7 58.9,119.7 96.5,57.2 77,57.5 		"/>
	</g>
</g>
<path id="XMLID_7_" class="st2" d="M100.2,12c25.5,12.3,39,40.9,32.4,68.1C126,108,100,127.4,71.2,126"/>
<path id="XMLID_4_" class="st2" d="M46.6,118.5c-25.5-12.3-39-40.9-32.4-68.1C20.9,22.6,46.8,3.1,75.7,4.5"/>
</svg>
